<mxfile host="app.diagrams.net" modified="2022-04-04T23:52:28.834Z" agent="5.0 (Macintosh; Intel Mac OS X 10_15_7) AppleWebKit/537.36 (KHTML, like Gecko) Chrome/99.0.4844.84 Safari/537.36" etag="gvxPgrrGcR3KhEbA_oRw" version="17.3.0" type="github">
  <diagram id="p30pzl2sNF_zDLClF5C2" name="第 1 页">
    <mxGraphModel dx="946" dy="614" grid="1" gridSize="10" guides="1" tooltips="1" connect="1" arrows="1" fold="1" page="1" pageScale="1" pageWidth="1169" pageHeight="827" math="0" shadow="0">
      <root>
        <mxCell id="0" />
        <mxCell id="1" parent="0" />
        <mxCell id="8FA01D5ai_Wo2LrbNwRD-2" value="&lt;font style=&quot;font-size: 17px&quot;&gt;成都&lt;/font&gt;" style="rounded=0;whiteSpace=wrap;html=1;fillColor=#dae8fc;strokeColor=#6c8ebf;" vertex="1" parent="1">
          <mxGeometry x="410" y="100" width="100" height="70" as="geometry" />
        </mxCell>
        <mxCell id="8FA01D5ai_Wo2LrbNwRD-3" value="&lt;font style=&quot;font-size: 17px&quot;&gt;上海&lt;/font&gt;" style="rounded=0;whiteSpace=wrap;html=1;fillColor=#dae8fc;strokeColor=#6c8ebf;" vertex="1" parent="1">
          <mxGeometry x="410" y="170" width="100" height="70" as="geometry" />
        </mxCell>
        <mxCell id="8FA01D5ai_Wo2LrbNwRD-4" value="&lt;font style=&quot;font-size: 17px&quot;&gt;北京&lt;/font&gt;" style="rounded=0;whiteSpace=wrap;html=1;fillColor=#dae8fc;strokeColor=#6c8ebf;" vertex="1" parent="1">
          <mxGeometry x="410" y="240" width="100" height="70" as="geometry" />
        </mxCell>
        <mxCell id="8FA01D5ai_Wo2LrbNwRD-5" value="[0]" style="text;html=1;align=center;verticalAlign=middle;resizable=0;points=[];autosize=1;strokeColor=none;fillColor=none;fontSize=17;" vertex="1" parent="1">
          <mxGeometry x="375" y="260" width="30" height="30" as="geometry" />
        </mxCell>
        <mxCell id="8FA01D5ai_Wo2LrbNwRD-6" value="[1]" style="text;html=1;align=center;verticalAlign=middle;resizable=0;points=[];autosize=1;strokeColor=none;fillColor=none;fontSize=17;" vertex="1" parent="1">
          <mxGeometry x="375" y="190" width="30" height="30" as="geometry" />
        </mxCell>
        <mxCell id="8FA01D5ai_Wo2LrbNwRD-7" value="[2]" style="text;html=1;align=center;verticalAlign=middle;resizable=0;points=[];autosize=1;strokeColor=none;fillColor=none;fontSize=17;" vertex="1" parent="1">
          <mxGeometry x="375" y="120" width="30" height="30" as="geometry" />
        </mxCell>
        <mxCell id="8FA01D5ai_Wo2LrbNwRD-8" value="&lt;font style=&quot;font-size: 15px&quot;&gt;栈顶&lt;/font&gt;" style="text;html=1;align=center;verticalAlign=middle;resizable=0;points=[];autosize=1;strokeColor=none;fillColor=none;fontSize=17;" vertex="1" parent="1">
          <mxGeometry x="435" y="60" width="50" height="30" as="geometry" />
        </mxCell>
        <mxCell id="8FA01D5ai_Wo2LrbNwRD-9" value="&lt;font style=&quot;font-size: 15px&quot;&gt;栈底&lt;/font&gt;" style="text;html=1;align=center;verticalAlign=middle;resizable=0;points=[];autosize=1;strokeColor=none;fillColor=none;fontSize=17;" vertex="1" parent="1">
          <mxGeometry x="435" y="320" width="50" height="30" as="geometry" />
        </mxCell>
      </root>
    </mxGraphModel>
  </diagram>
</mxfile>
